<svg xmlns="http://www.w3.org/2000/svg" viewBox="0 0 512 512">
<defs><linearGradient id="bg" x1="0" y1="0" x2="1" y2="1"><stop offset="0" stop-color="#087cff"/><stop offset="1" stop-color="#071b9f"/></linearGradient><linearGradient id="letter" x1="0" y1="0" x2="0" y2="1"><stop offset="0" stop-color="#fff"/><stop offset="1" stop-color="#dcecff"/></linearGradient><filter id="shadow" x="-20%" y="-20%" width="140%" height="140%"><feDropShadow dx="0" dy="8" stdDeviation="9" flood-color="#00105b" flood-opacity=".45"/></filter></defs>
<rect width="512" height="512" rx="112" fill="url(#bg)"/>
<circle cx="405" cy="90" r="92" fill="#36d7ff" opacity=".16"/>
<g filter="url(#shadow)" fill="url(#letter)">
<path d="M92 126h111c92 0 151 51 151 130S296 386 203 386H92V126zm69 60v140h40c53 0 83-24 83-70s-30-70-83-70h-40z"/>
<path d="M405 198c-12-16-29-24-49-24-38 0-64 31-64 82s26 82 64 82c21 0 39-9 52-27l48 40c-23 29-59 45-102 45-78 0-132-56-132-140s54-140 132-140c41 0 76 14 99 43l-48 39z" transform="translate(16 -2) scale(.88) translate(30 30)"/>
</g>
<path d="M123 246h69a48 48 0 0 1 48 48v17a48 48 0 0 1-48 48h-21l-31 23 7-31a48 48 0 0 1-24-40v-17a48 48 0 0 1 48-48z" fill="#0751e8" stroke="#c9e9ff" stroke-width="5"/>
<g fill="#fff"><circle cx="166" cy="302" r="7"/><circle cx="191" cy="302" r="7"/><circle cx="216" cy="302" r="7"/></g>
</svg>